<?xml version="1.0" encoding="UTF-8"?>
<svg id="Livello_1" xmlns="http://www.w3.org/2000/svg" version="1.1" viewBox="0 0 979.6 767">
  <!-- Generator: Adobe Illustrator 29.0.0, SVG Export Plug-In . SVG Version: 2.1.0 Build 186)  -->
  <defs>
    <style>
      .st0 {
        fill: #011444;
      }

      .st1 {
        fill: #9ed15a;
      }

      .st2 {
        fill: #fff;
      }

      .st3 {
        fill: #4ea6ff;
      }

      .st4 {
        fill: #f64fb7;
      }
    </style>
  </defs>
  <rect class="st2" x="1.7" y="4.3" width="973.9" height="762.7" rx="57.6" ry="57.6" transform="translate(-2 2.5) rotate(-.3)"/>
  <g>
    <path class="st0" d="M439.7,530.3h-20.6c-2.6-18.4-27.5-21.3-39.9-10.8-16.6,14-14.1,52.6,9.3,59.2,9.5,2.7,24,1.9,31.5-5.1v-15.9h-21.1v-15.7h41.6v38.7c-1.6.3-2.5,1.9-3.7,2.9-18,15.2-51.8,16.9-70.9,2.9-24.3-17.9-24.1-61.2-.3-79.4,24.1-18.5,69.7-10.9,73.9,23.2Z"/>
    <path class="st0" d="M481.8,558.7v35.5l-.7.7h-19.8v-96.4c15.5.7,31.8-.9,47.3,0,11,.6,21.7,4.1,28,13.6,6.6,9.8,6.1,25.1-1.2,34.4-12.8,16.2-35.5,11.5-53.6,12.3ZM481.8,543.1h24.2c11.4,0,18-11.3,13.2-21.5-1.9-3.9-7.4-7.4-11.7-7.4h-25.7v28.9Z"/>
    <path class="st0" d="M347.1,730.5l35-96h22.7c0,0,33.8,96,33.8,96h-21.1l-6.8-20.8h-36.3s-6.8,20.8-6.8,20.8h-20.6ZM379.9,693.3h25.5l-13-38.2-12.5,38.2Z"/>
    <path class="st0" d="M522.9,634.6v95.9h-19.6v-10.3l-4.2,5.4c-32.6,21-58.4-13.6-46-45.5,7.4-19,32.3-26,47.2-11.5l2.5,3.7v-37.7h20.1ZM484.1,677.3c-18.6,2.7-18.3,41.1,5.2,38.5,20-2.2,19-42-5.2-38.5Z"/>
    <path class="st0" d="M754.6,722c-18.2-17.5-12-50.6,12.7-58.7,30.2-9.9,60.2,11.4,50.7,44.3s-45.1,31.9-63.3,14.4ZM793.9,681.7c-7.5-7.8-20.8-6.2-26.2,3.1-7.7,13.3,1,35.3,18.5,30.8,13.3-3.5,16.4-24.8,7.6-33.9Z"/>
    <polygon class="st0" points="916.5 662.5 930.9 703.6 946.3 662.5 967.4 662.5 926.8 757.9 906.7 757.9 920.1 727 894.9 662.5 916.5 662.5"/>
    <path class="st0" d="M727.5,681.6h-17.6c0-2-1.2-3.7-2.8-4.8-4.3-3-17.9-4-20.1,1.7-1.5,3.8,1.3,5.8,4.5,7,7.3,2.7,16.1,2.6,23.6,5.8,20.4,8.5,17.9,34.6-4.3,39.4-16.6,3.6-43.6,0-45-21.2h17.6c.9,5.7,6.2,8.4,11.5,8.8s17.3.7,15.9-8.1c-.4-2.2-2.3-3.3-4.2-4.1-10.1-3.9-21.7-2.6-31.1-10-9.6-7.6-8.8-22.6,1-29.7,13.7-9.9,50.7-7.3,51.1,15.1Z"/>
    <polygon class="st0" points="560.3 662.5 576 708.5 590.9 662.5 612 662.5 585.5 730.5 566.7 730.6 539.5 662.5 560.3 662.5"/>
    <path class="st0" d="M882.2,661.5v18.6h-11c-.2,0-3.9,1.2-4.5,1.4-3.2,1.3-5.5,3.2-6.8,6.5s-1.2,4-1.2,4.6v37.9h-20.1v-68h19.6v11.7c1.5-1.4,2.1-3.4,3.4-5.1,4.8-6.2,12.8-9.2,20.5-7.6Z"/>
    <rect class="st0" x="627.2" y="662.5" width="20.1" height="68"/>
    <polygon class="st0" points="648.2 653.2 626.7 653.2 626.7 631.6 647.5 631.6 648.2 632.4 648.2 653.2"/>
  </g>
  <rect class="st3" x="292.7" y="9.1" width="423.7" height="423.7"/>
  <rect class="st4" x="11.3" y="151.4" width="281.3" height="281.3"/>
  <rect class="st1" x="126" y="432.7" width="166.7" height="166.7"/>
</svg>