<?xml version="1.0" encoding="UTF-8"?>
<svg id="Livello_1" data-name="Livello 1" xmlns="http://www.w3.org/2000/svg" viewBox="0 0 979.57 767">
  <defs>
    <style>
      .cls-1 {
        fill: #011444;
      }

      .cls-2 {
        fill: #9ed15a;
      }

      .cls-3 {
        fill: #4ea6ff;
      }

      .cls-4 {
        fill: #f64fb7;
      }
    </style>
  </defs>
  <g>
    <path class="cls-1" d="M439.66,530.33h-20.56c-2.64-18.35-27.47-21.3-39.91-10.78-16.59,14.03-14.12,52.65,9.34,59.21,9.53,2.67,24,1.94,31.55-5.11v-15.91h-21.05v-15.66h41.61v38.67c-1.6.28-2.48,1.9-3.69,2.92-18.05,15.25-51.77,16.95-70.89,2.87-24.29-17.89-24.06-61.16-.29-79.42,24.12-18.52,69.72-10.87,73.88,23.21Z"/>
    <path class="cls-1" d="M481.76,558.72v35.49l-.73.73h-19.83v-96.43c15.52.69,31.83-.92,47.26-.02,11,.64,21.67,4.07,28.04,13.57,6.58,9.82,6.15,25.07-1.17,34.38-12.77,16.24-35.45,11.53-53.56,12.28ZM481.76,543.06h24.23c11.38,0,18.03-11.34,13.17-21.49-1.88-3.92-7.36-7.39-11.7-7.39h-25.7v28.88Z"/>
    <path class="cls-1" d="M347.14,730.52l34.98-95.97,22.73.08,33.83,95.89h-21.05l-6.83-20.82h-36.27s-6.83,20.82-6.83,20.82h-20.56ZM379.94,693.32h25.46l-12.97-38.18-12.49,38.18Z"/>
    <path class="cls-1" d="M522.88,634.59v95.94h-19.58v-10.28l-4.17,5.37c-32.61,21-58.44-13.64-45.99-45.5,7.4-18.95,32.33-26.01,47.22-11.5l2.46,3.66v-37.69h20.07ZM484.09,677.3c-18.58,2.72-18.26,41.11,5.21,38.49,19.99-2.24,19.01-42.03-5.21-38.49Z"/>
    <path class="cls-1" d="M754.61,722.03c-18.18-17.46-12.02-50.62,12.66-58.71,30.21-9.9,60.16,11.39,50.67,44.3-7.5,26-45.1,31.92-63.33,14.4ZM793.91,681.75c-7.49-7.76-20.78-6.15-26.16,3.11-7.73,13.29,1.03,35.32,18.53,30.77,13.31-3.46,16.42-24.77,7.63-33.87Z"/>
    <polygon class="cls-1" points="916.47 662.49 930.92 703.6 946.33 662.49 967.38 662.49 926.75 757.93 906.68 757.93 920.14 727.03 894.93 662.49 916.47 662.49"/>
    <path class="cls-1" d="M727.51,681.58h-17.62c-.09-2.01-1.17-3.68-2.77-4.81-4.27-3.03-17.91-3.97-20.13,1.74-1.48,3.8,1.3,5.8,4.53,7,7.31,2.73,16.07,2.63,23.6,5.77,20.43,8.52,17.9,34.61-4.33,39.41-16.58,3.58-43.64,0-44.96-21.21h17.62c.89,5.66,6.19,8.37,11.49,8.83,5.8.5,17.32.7,15.9-8.07-.36-2.25-2.34-3.33-4.24-4.08-10.08-3.92-21.74-2.59-31.13-9.98-9.61-7.57-8.77-22.64.98-29.69,13.74-9.92,50.72-7.34,51.07,15.09Z"/>
    <polygon class="cls-1" points="560.33 662.49 576 708.5 590.93 662.49 611.98 662.49 585.48 730.46 566.68 730.56 539.53 662.49 560.33 662.49"/>
    <path class="cls-1" d="M882.2,661.51v18.6h-11.01c-.24,0-3.94,1.15-4.5,1.38-3.18,1.27-5.52,3.21-6.76,6.46-.33.86-1.23,3.96-1.23,4.64v37.93h-20.07v-68.04h19.58v11.75c1.54-1.37,2.13-3.44,3.44-5.13,4.82-6.18,12.82-9.24,20.55-7.6Z"/>
    <rect class="cls-1" x="627.16" y="662.49" width="20.07" height="68.04"/>
    <polygon class="cls-1" points="648.21 653.19 626.67 653.19 626.67 631.65 647.47 631.65 648.21 632.38 648.21 653.19"/>
  </g>
  <rect class="cls-3" x="292.67" y="9.07" width="423.67" height="423.67"/>
  <rect class="cls-4" x="11.34" y="151.4" width="281.33" height="281.33"/>
  <rect class="cls-2" x="126" y="432.73" width="166.67" height="166.67"/>
</svg>