<?xml version="1.0" encoding="UTF-8"?>
<svg id="Livello_1" xmlns="http://www.w3.org/2000/svg" version="1.1" viewBox="0 0 1000.5 232.4">
  <!-- Generator: Adobe Illustrator 29.0.0, SVG Export Plug-In . SVG Version: 2.1.0 Build 186)  -->
  <defs>
    <style>
      .st0 {
        fill: #011444;
      }

      .st1 {
        fill: #9ed15a;
      }

      .st2 {
        fill: #4ea6ff;
      }

      .st3 {
        fill: #f64fb7;
      }
    </style>
  </defs>
  <path class="st0" d="M382.4,110.3h-16.5c-2.1-14.7-22-17.1-32-8.6-13.3,11.2-11.3,42.2,7.5,47.4,7.6,2.1,19.2,1.6,25.3-4.1v-12.7h-16.9v-12.6h33.3v31c-1.3.2-2,1.5-3,2.3-14.5,12.2-41.5,13.6-56.8,2.3-19.5-14.3-19.3-49-.2-63.6s55.9-8.7,59.2,18.6Z"/>
  <path class="st0" d="M416.1,133.1v28.4l-.6.6h-15.9v-77.3c12.4.6,25.5-.7,37.9,0,8.8.5,17.4,3.3,22.5,10.9,5.3,7.9,4.9,20.1-.9,27.5-10.2,13-28.4,9.2-42.9,9.8ZM416.1,120.5h19.4c9.1,0,14.4-9.1,10.6-17.2-1.5-3.1-5.9-5.9-9.4-5.9h-20.6v23.1Z"/>
  <path class="st0" d="M501.1,161.9l28-76.9h18.2c0,0,27.1,76.9,27.1,76.9h-16.9l-5.5-16.7h-29.1s-5.5,16.7-5.5,16.7h-16.5ZM527.4,132.1h20.4l-10.4-30.6-10,30.6Z"/>
  <path class="st0" d="M641.9,85.1v76.9h-15.7v-8.2l-3.3,4.3c-26.1,16.8-46.8-10.9-36.9-36.5,5.9-15.2,25.9-20.8,37.8-9.2l2,2.9v-30.2h16.1ZM610.8,119.3c-14.9,2.2-14.6,32.9,4.2,30.8s15.2-33.7-4.2-30.8Z"/>
  <path class="st0" d="M827.6,155.1c-14.6-14-9.6-40.6,10.1-47,24.2-7.9,48.2,9.1,40.6,35.5-6,20.8-36.1,25.6-50.8,11.5ZM859.1,122.8c-6-6.2-16.7-4.9-21,2.5-6.2,10.6.8,28.3,14.9,24.7,10.7-2.8,13.2-19.8,6.1-27.1Z"/>
  <polygon class="st0" points="957.3 107.4 968.9 140.4 981.3 107.4 998.1 107.4 965.6 183.9 949.5 183.9 960.3 159.1 940.1 107.4 957.3 107.4"/>
  <path class="st0" d="M805.9,122.7h-14.1c0-1.6-.9-2.9-2.2-3.9-3.4-2.4-14.4-3.2-16.1,1.4s1,4.6,3.6,5.6c5.9,2.2,12.9,2.1,18.9,4.6,16.4,6.8,14.3,27.7-3.5,31.6-13.3,2.9-35,0-36-17h14.1c.7,4.5,5,6.7,9.2,7.1,4.7.4,13.9.6,12.7-6.5-.3-1.8-1.9-2.7-3.4-3.3-8.1-3.1-17.4-2.1-25-8-7.7-6.1-7-18.1.8-23.8,11-8,40.6-5.9,40.9,12.1Z"/>
  <polygon class="st0" points="671.9 107.4 684.5 144.3 696.5 107.4 713.3 107.4 692.1 161.9 677 162 655.3 107.4 671.9 107.4"/>
  <path class="st0" d="M929.9,106.6v14.9h-8.8c-.2,0-3.2.9-3.6,1.1-2.6,1-4.4,2.6-5.4,5.2s-1,3.2-1,3.7v30.4h-16.1v-54.5h15.7v9.4c1.2-1.1,1.7-2.8,2.8-4.1,3.9-5,10.3-7.4,16.5-6.1Z"/>
  <rect class="st0" x="725.5" y="107.4" width="16.1" height="54.5"/>
  <polygon class="st0" points="742.4 100 725.1 100 725.1 82.7 741.8 82.7 742.4 83.3 742.4 100"/>
  <rect class="st2" x="110" y="4.7" width="159.6" height="159.6"/>
  <rect class="st3" x="4" y="58.3" width="106" height="106"/>
  <rect class="st1" x="47.2" y="164.3" width="62.8" height="62.8"/>
</svg>